<?xml version="1.0" encoding="UTF-8"?>
<svg xmlns="http://www.w3.org/2000/svg" viewBox="0 0 800 600">
  <polygon points="390.48,292.86 409.52,292.86 400.00,311.43" fill="#333333" stroke="#000000" stroke-width="1.00" stroke-linejoin="round"/>
  <polyline points="438.10,300.00 437.91,297.20 437.36,294.43 436.45,291.71 435.20,289.07 433.60,286.53 431.68,284.13 429.45,281.87 426.94,279.80 424.17,277.91 421.16,276.24 417.96,274.80 414.58,273.60 411.06,272.66 407.43,271.98 403.73,271.57 400.00,271.43 396.27,271.57 392.57,271.98 388.94,272.66 385.42,273.60 382.04,274.80 378.84,276.24 375.83,277.91 373.06,279.80 370.55,281.87 368.32,284.13 366.40,286.53 364.80,289.07 363.55,291.71 362.64,294.43 362.09,297.20 361.90,300.00 362.09,302.80 362.64,305.57 363.55,308.29 364.80,310.93 366.40,313.47 368.32,315.87 370.55,318.13 373.06,320.20 375.83,322.09 378.84,323.76 382.04,325.20 385.42,326.40 388.94,327.34 392.57,328.02 396.27,328.43 400.00,328.57 403.73,328.43 407.43,328.02 411.06,327.34 414.58,326.40 417.96,325.20 421.16,323.76 424.17,322.09 426.94,320.20 429.45,318.13 431.68,315.87 433.60,313.47 435.20,310.93 436.45,308.29 437.36,305.57 437.91,302.80 438.10,300.00" fill="none" stroke="#664c33" stroke-width="0.50" stroke-linecap="round" stroke-linejoin="round"/>
  <polyline points="476.19,300.00 475.82,294.40 474.73,288.85 472.91,283.41 470.39,278.13 467.19,273.06 463.35,268.25 458.90,263.75 453.87,259.59 448.33,255.83 442.33,252.49 435.92,249.60 429.16,247.21 422.12,245.32 414.86,243.96 407.47,243.13 400.00,242.86 392.53,243.13 385.14,243.96 377.88,245.32 370.84,247.21 364.08,249.60 357.67,252.49 351.67,255.83 346.13,259.59 341.10,263.75 336.65,268.25 332.81,273.06 329.61,278.13 327.09,283.41 325.27,288.85 324.18,294.40 323.81,300.00 324.18,305.60 325.27,311.15 327.09,316.59 329.61,321.87 332.81,326.94 336.65,331.75 341.10,336.25 346.13,340.41 351.67,344.17 357.67,347.51 364.08,350.40 370.84,352.79 377.88,354.68 385.14,356.04 392.53,356.87 400.00,357.14 407.47,356.87 414.86,356.04 422.12,354.68 429.16,352.79 435.92,350.40 442.33,347.51 448.33,344.17 453.87,340.41 458.90,336.25 463.35,331.75 467.19,326.94 470.39,321.87 472.91,316.59 474.73,311.15 475.82,305.60 476.19,300.00" fill="none" stroke="#664c33" stroke-width="0.50" stroke-linecap="round" stroke-linejoin="round"/>
  <polyline points="514.29,300.00 513.74,291.60 512.09,283.28 509.36,275.12 505.59,267.20 500.79,259.59 495.03,252.38 488.34,245.62 480.81,239.39 472.50,233.74 463.49,228.73 453.87,224.41 443.74,220.81 433.18,217.98 422.30,215.93 411.20,214.70 400.00,214.29 388.80,214.70 377.70,215.93 366.82,217.98 356.26,220.81 346.13,224.41 336.51,228.73 327.50,233.74 319.19,239.39 311.66,245.62 304.97,252.38 299.21,259.59 294.41,267.20 290.64,275.12 287.91,283.28 286.26,291.60 285.71,300.00 286.26,308.40 287.91,316.72 290.64,324.88 294.41,332.80 299.21,340.41 304.97,347.62 311.66,354.38 319.19,360.61 327.50,366.26 336.51,371.27 346.13,375.59 356.26,379.19 366.82,382.02 377.70,384.07 388.80,385.30 400.00,385.71 411.20,385.30 422.30,384.07 433.18,382.02 443.74,379.19 453.87,375.59 463.49,371.27 472.50,366.26 480.81,360.61 488.34,354.38 495.03,347.62 500.79,340.41 505.59,332.80 509.36,324.88 512.09,316.72 513.74,308.40 514.29,300.00" fill="none" stroke="#664c33" stroke-width="0.50" stroke-linecap="round" stroke-linejoin="round"/>
  <polyline points="552.38,300.00 551.65,288.80 549.45,277.70 545.82,266.82 540.78,256.26 534.39,246.13 526.70,236.51 517.79,227.50 507.75,219.19 496.67,211.66 484.66,204.97 471.83,199.21 458.31,194.41 444.23,190.64 429.73,187.91 414.94,186.26 400.00,185.71 385.06,186.26 370.27,187.91 355.77,190.64 341.69,194.41 328.17,199.21 315.34,204.97 303.33,211.66 292.25,219.19 282.21,227.50 273.30,236.51 265.61,246.13 259.22,256.26 254.18,266.82 250.55,277.70 248.35,288.80 247.62,300.00 248.35,311.20 250.55,322.30 254.18,333.18 259.22,343.74 265.61,353.87 273.30,363.49 282.21,372.50 292.25,380.81 303.33,388.34 315.34,395.03 328.17,400.79 341.69,405.59 355.77,409.36 370.27,412.09 385.06,413.74 400.00,414.29 414.94,413.74 429.73,412.09 444.23,409.36 458.31,405.59 471.83,400.79 484.66,395.03 496.67,388.34 507.75,380.81 517.79,372.50 526.70,363.49 534.39,353.87 540.78,343.74 545.82,333.18 549.45,322.30 551.65,311.20 552.38,300.00" fill="none" stroke="#664c33" stroke-width="0.50" stroke-linecap="round" stroke-linejoin="round"/>
  <polyline points="590.48,300.00 589.56,286.00 586.82,272.13 582.27,258.53 575.98,245.33 567.99,232.66 558.38,220.63 547.24,209.37 534.69,198.98 520.84,189.57 505.82,181.22 489.79,174.01 472.89,168.02 455.29,163.29 437.16,159.89 418.67,157.83 400.00,157.14 381.33,157.83 362.84,159.89 344.71,163.29 327.11,168.02 310.21,174.01 294.18,181.22 279.16,189.57 265.31,198.98 252.76,209.37 241.62,220.63 232.01,232.66 224.02,245.33 217.73,258.53 213.18,272.13 210.44,286.00 209.52,300.00 210.44,314.00 213.18,327.87 217.73,341.47 224.02,354.67 232.01,367.34 241.62,379.37 252.76,390.63 265.31,401.02 279.16,410.43 294.18,418.78 310.21,425.99 327.11,431.98 344.71,436.71 362.84,440.11 381.33,442.17 400.00,442.86 418.67,442.17 437.16,440.11 455.29,436.71 472.89,431.98 489.79,425.99 505.82,418.78 520.84,410.43 534.69,401.02 547.24,390.63 558.38,379.37 567.99,367.34 575.98,354.67 582.27,341.47 586.82,327.87 589.56,314.00 590.48,300.00" fill="none" stroke="#664c33" stroke-width="1.50" stroke-linecap="round" stroke-linejoin="round"/>
  <polyline points="628.57,300.00 627.47,283.20 624.18,266.56 618.73,250.24 611.17,234.40 601.58,219.19 590.05,204.76 576.69,191.25 561.62,178.78 545.00,167.48 526.99,157.46 507.75,148.81 487.47,141.62 466.35,135.95 444.59,131.87 422.40,129.40 400.00,128.57 377.60,129.40 355.41,131.87 333.65,135.95 312.53,141.62 292.25,148.81 273.01,157.46 255.00,167.48 238.38,178.78 223.31,191.25 209.95,204.76 198.42,219.19 188.83,234.40 181.27,250.24 175.82,266.56 172.53,283.20 171.43,300.00 172.53,316.80 175.82,333.44 181.27,349.76 188.83,365.60 198.42,380.81 209.95,395.24 223.31,408.75 238.38,421.22 255.00,432.52 273.01,442.54 292.25,451.19 312.53,458.38 333.65,464.05 355.41,468.13 377.60,470.60 400.00,471.43 422.40,470.60 444.59,468.13 466.35,464.05 487.47,458.38 507.75,451.19 526.99,442.54 545.00,432.52 561.62,421.22 576.69,408.75 590.05,395.24 601.58,380.81 611.17,365.60 618.73,349.76 624.18,333.44 627.47,316.80 628.57,300.00" fill="none" stroke="#664c33" stroke-width="0.50" stroke-linecap="round" stroke-linejoin="round"/>
  <polyline points="666.67,300.00 665.38,280.40 661.54,260.98 655.18,241.94 646.37,223.46 635.18,205.72 621.73,188.89 606.14,173.12 588.56,158.58 569.17,145.40 548.15,133.71 525.71,123.62 502.05,115.22 477.41,108.61 452.02,103.84 426.14,100.96 400.00,100.00 373.86,100.96 347.98,103.84 322.59,108.61 297.95,115.22 274.29,123.62 251.85,133.71 230.83,145.40 211.44,158.58 193.86,173.12 178.27,188.89 164.82,205.72 153.63,223.46 144.82,241.94 138.46,260.98 134.62,280.40 133.33,300.00 134.62,319.60 138.46,339.02 144.82,358.06 153.63,376.54 164.82,394.28 178.27,411.11 193.86,426.88 211.44,441.42 230.83,454.60 251.85,466.29 274.29,476.38 297.95,484.78 322.59,491.39 347.98,496.16 373.86,499.04 400.00,500.00 426.14,499.04 452.02,496.16 477.41,491.39 502.05,484.78 525.71,476.38 548.15,466.29 569.17,454.60 588.56,441.42 606.14,426.88 621.73,411.11 635.18,394.28 646.37,376.54 655.18,358.06 661.54,339.02 665.38,319.60 666.67,300.00" fill="none" stroke="#664c33" stroke-width="0.50" stroke-linecap="round" stroke-linejoin="round"/>
  <polyline points="704.76,300.00 703.29,277.60 698.91,255.41 691.64,233.65 681.56,212.53 668.78,192.25 653.40,173.01 635.58,155.00 615.50,138.38 593.34,123.31 569.32,109.95 543.66,98.42 516.63,88.83 488.47,81.27 459.46,75.82 429.87,72.53 400.00,71.43 370.13,72.53 340.54,75.82 311.53,81.27 283.37,88.83 256.34,98.42 230.68,109.95 206.66,123.31 184.50,138.38 164.42,155.00 146.60,173.01 131.22,192.25 118.44,212.53 108.36,233.65 101.09,255.41 96.71,277.60 95.24,300.00 96.71,322.40 101.09,344.59 108.36,366.35 118.44,387.47 131.22,407.75 146.60,426.99 164.42,445.00 184.50,461.62 206.66,476.69 230.68,490.05 256.34,501.58 283.37,511.17 311.53,518.73 340.54,524.18 370.13,527.47 400.00,528.57 429.87,527.47 459.46,524.18 488.47,518.73 516.63,511.17 543.66,501.58 569.32,490.05 593.34,476.69 615.50,461.62 635.58,445.00 653.40,426.99 668.78,407.75 681.56,387.47 691.64,366.35 698.91,344.59 703.29,322.40 704.76,300.00" fill="none" stroke="#664c33" stroke-width="0.50" stroke-linecap="round" stroke-linejoin="round"/>
  <polyline points="742.86,300.00 741.21,274.80 736.27,249.83 728.09,225.36 716.76,201.60 702.37,178.78 685.08,157.14 665.03,136.87 642.44,118.17 617.51,101.23 590.48,86.19 561.62,73.22 531.21,62.43 499.53,53.93 466.89,47.80 433.61,44.10 400.00,42.86 366.39,44.10 333.11,47.80 300.47,53.93 268.79,62.43 238.38,73.22 209.52,86.19 182.49,101.23 157.56,118.17 134.97,136.87 114.92,157.14 97.63,178.78 83.24,201.60 71.91,225.36 63.73,249.83 58.79,274.80 57.14,300.00 58.79,325.20 63.73,350.17 71.91,374.64 83.24,398.40 97.63,421.22 114.92,442.86 134.97,463.13 157.56,481.83 182.49,498.77 209.52,513.81 238.38,526.78 268.79,537.57 300.47,546.07 333.11,552.20 366.39,555.90 400.00,557.14 433.61,555.90 466.89,552.20 499.53,546.07 531.21,537.57 561.62,526.78 590.48,513.81 617.51,498.77 642.44,481.83 665.03,463.13 685.08,442.86 702.37,421.22 716.76,398.40 728.09,374.64 736.27,350.17 741.21,325.20 742.86,300.00" fill="none" stroke="#664c33" stroke-width="0.50" stroke-linecap="round" stroke-linejoin="round"/>
  <polyline points="780.95,300.00 779.12,272.00 773.63,244.26 764.55,217.06 751.95,190.66 735.97,165.32 716.75,141.27 694.48,118.74 669.37,97.97 641.67,79.14 611.65,62.44 579.58,48.02 545.78,36.03 510.58,26.59 474.32,19.78 437.34,15.66 400.00,14.29 362.66,15.66 325.68,19.78 289.42,26.59 254.22,36.03 220.42,48.02 188.35,62.44 158.33,79.14 130.63,97.97 105.52,118.74 83.25,141.27 64.03,165.32 48.05,190.66 35.45,217.06 26.37,244.26 20.88,272.00 19.05,300.00 20.88,328.00 26.37,355.74 35.45,382.94 48.05,409.34 64.03,434.68 83.25,458.73 105.52,481.26 130.63,502.03 158.33,520.86 188.35,537.56 220.42,551.98 254.22,563.97 289.42,573.41 325.68,580.22 362.66,584.34 400.00,585.71 437.34,584.34 474.32,580.22 510.58,573.41 545.78,563.97 579.58,551.98 611.65,537.56 641.67,520.86 669.37,502.03 694.48,481.26 716.75,458.73 735.97,434.68 751.95,409.34 764.55,382.94 773.63,355.74 779.12,328.00 780.95,300.00" fill="none" stroke="#664c33" stroke-width="1.50" stroke-linecap="round" stroke-linejoin="round"/>
  <text x="533.33" y="300.00" font-family="sans-serif" font-size="10.00" font-weight="normal" text-anchor="middle" dominant-baseline="middle" fill="none" stroke="rgba(255,255,255,0.80)" stroke-width="2.00" stroke-linejoin="round">250m</text>
  <text x="533.33" y="300.00" font-family="sans-serif" font-size="10.00" font-weight="normal" text-anchor="middle" dominant-baseline="middle" fill="#4c3319">250m</text>
  <text x="666.67" y="300.00" font-family="sans-serif" font-size="10.00" font-weight="normal" text-anchor="middle" dominant-baseline="middle" fill="none" stroke="rgba(255,255,255,0.80)" stroke-width="2.00" stroke-linejoin="round">500m</text>
  <text x="666.67" y="300.00" font-family="sans-serif" font-size="10.00" font-weight="normal" text-anchor="middle" dominant-baseline="middle" fill="#4c3319">500m</text>
  <text x="400.00" y="328.57" font-family="sans-serif" font-size="12.00" font-weight="normal" text-anchor="middle" dominant-baseline="middle" fill="none" stroke="rgba(255,255,255,0.80)" stroke-width="3.00" stroke-linejoin="round">Peak 500m</text>
  <text x="400.00" y="328.57" font-family="sans-serif" font-size="12.00" font-weight="normal" text-anchor="middle" dominant-baseline="middle" fill="#191919">Peak 500m</text>
</svg>