<svg xmlns="http://www.w3.org/2000/svg" width="1200" height="720" viewBox="0 0 1200 720" fill="none">
  <defs>
    <linearGradient id="bg" x1="0" y1="0" x2="1200" y2="720" gradientUnits="userSpaceOnUse">
      <stop offset="0" stop-color="#22223b"/>
      <stop offset="1" stop-color="#4a4e69"/>
    </linearGradient>
    <linearGradient id="flare" x1="0" y1="0" x2="0" y2="1">
      <stop offset="0" stop-color="#9a8c98" stop-opacity="0.32"/>
      <stop offset="1" stop-color="#9a8c98" stop-opacity="0.03"/>
    </linearGradient>
  </defs>
  <rect width="1200" height="720" fill="url(#bg)"/>
  <circle cx="980" cy="110" r="170" fill="url(#flare)"/>
  <rect x="56" y="56" width="1088" height="608" rx="32" fill="#ffffff" fill-opacity="0.04" stroke="#ffffff" stroke-opacity="0.14"/>
  <g><circle cx="170" cy="180" r="7" fill="#c9ada7" opacity="0.82"/><circle cx="232" cy="180" r="7" fill="#c9ada7" opacity="0.82"/><circle cx="294" cy="180" r="7" fill="#c9ada7" opacity="0.82"/><circle cx="356" cy="180" r="7" fill="#c9ada7" opacity="0.82"/><circle cx="418" cy="180" r="7" fill="#c9ada7" opacity="0.82"/><circle cx="480" cy="180" r="7" fill="#c9ada7" opacity="0.82"/><circle cx="542" cy="180" r="7" fill="#c9ada7" opacity="0.82"/><circle cx="604" cy="180" r="7" fill="#c9ada7" opacity="0.82"/><circle cx="666" cy="180" r="7" fill="#c9ada7" opacity="0.82"/><circle cx="728" cy="180" r="7" fill="#c9ada7" opacity="0.82"/><circle cx="790" cy="180" r="7" fill="#c9ada7" opacity="0.82"/><circle cx="852" cy="180" r="7" fill="#c9ada7" opacity="0.82"/><circle cx="914" cy="180" r="7" fill="#c9ada7" opacity="0.82"/><circle cx="976" cy="180" r="7" fill="#c9ada7" opacity="0.82"/><circle cx="184" cy="222" r="7" fill="#c9ada7" opacity="0.82"/><circle cx="246" cy="222" r="7" fill="#c9ada7" opacity="0.82"/><circle cx="308" cy="222" r="7" fill="#c9ada7" opacity="0.82"/><circle cx="370" cy="222" r="7" fill="#c9ada7" opacity="0.82"/><circle cx="432" cy="222" r="7" fill="#c9ada7" opacity="0.82"/><circle cx="494" cy="222" r="7" fill="#c9ada7" opacity="0.82"/><circle cx="556" cy="222" r="7" fill="#c9ada7" opacity="0.82"/><circle cx="618" cy="222" r="7" fill="#c9ada7" opacity="0.82"/><circle cx="680" cy="222" r="7" fill="#c9ada7" opacity="0.82"/><circle cx="742" cy="222" r="7" fill="#c9ada7" opacity="0.82"/><circle cx="804" cy="222" r="7" fill="#c9ada7" opacity="0.82"/><circle cx="866" cy="222" r="7" fill="#c9ada7" opacity="0.82"/><circle cx="928" cy="222" r="7" fill="#c9ada7" opacity="0.82"/><circle cx="990" cy="222" r="7" fill="#c9ada7" opacity="0.82"/><circle cx="170" cy="264" r="7" fill="#c9ada7" opacity="0.82"/><circle cx="232" cy="264" r="7" fill="#c9ada7" opacity="0.82"/><circle cx="294" cy="264" r="7" fill="#c9ada7" opacity="0.82"/><circle cx="356" cy="264" r="7" fill="#c9ada7" opacity="0.82"/><circle cx="418" cy="264" r="7" fill="#c9ada7" opacity="0.82"/><circle cx="480" cy="264" r="7" fill="#c9ada7" opacity="0.82"/><circle cx="542" cy="264" r="7" fill="#c9ada7" opacity="0.82"/><circle cx="604" cy="264" r="7" fill="#c9ada7" opacity="0.82"/><circle cx="666" cy="264" r="7" fill="#c9ada7" opacity="0.82"/><circle cx="728" cy="264" r="7" fill="#c9ada7" opacity="0.82"/><circle cx="790" cy="264" r="7" fill="#c9ada7" opacity="0.82"/><circle cx="852" cy="264" r="7" fill="#c9ada7" opacity="0.82"/><circle cx="914" cy="264" r="7" fill="#c9ada7" opacity="0.82"/><circle cx="976" cy="264" r="7" fill="#c9ada7" opacity="0.82"/><circle cx="184" cy="306" r="7" fill="#c9ada7" opacity="0.82"/><circle cx="246" cy="306" r="7" fill="#c9ada7" opacity="0.82"/><circle cx="308" cy="306" r="7" fill="#c9ada7" opacity="0.82"/><circle cx="370" cy="306" r="7" fill="#c9ada7" opacity="0.82"/><circle cx="432" cy="306" r="7" fill="#c9ada7" opacity="0.82"/><circle cx="494" cy="306" r="7" fill="#c9ada7" opacity="0.82"/><circle cx="556" cy="306" r="7" fill="#c9ada7" opacity="0.82"/><circle cx="618" cy="306" r="7" fill="#c9ada7" opacity="0.82"/><circle cx="680" cy="306" r="7" fill="#c9ada7" opacity="0.82"/><circle cx="742" cy="306" r="7" fill="#c9ada7" opacity="0.82"/><circle cx="804" cy="306" r="7" fill="#c9ada7" opacity="0.82"/><circle cx="866" cy="306" r="7" fill="#c9ada7" opacity="0.82"/><circle cx="928" cy="306" r="7" fill="#c9ada7" opacity="0.82"/><circle cx="990" cy="306" r="7" fill="#c9ada7" opacity="0.82"/><circle cx="170" cy="348" r="7" fill="#c9ada7" opacity="0.82"/><circle cx="232" cy="348" r="7" fill="#c9ada7" opacity="0.82"/><circle cx="294" cy="348" r="7" fill="#c9ada7" opacity="0.82"/><circle cx="356" cy="348" r="7" fill="#c9ada7" opacity="0.82"/><circle cx="418" cy="348" r="7" fill="#c9ada7" opacity="0.82"/><circle cx="480" cy="348" r="7" fill="#c9ada7" opacity="0.82"/><circle cx="542" cy="348" r="7" fill="#c9ada7" opacity="0.82"/><circle cx="604" cy="348" r="7" fill="#c9ada7" opacity="0.82"/><circle cx="666" cy="348" r="7" fill="#c9ada7" opacity="0.82"/><circle cx="728" cy="348" r="7" fill="#c9ada7" opacity="0.82"/><circle cx="790" cy="348" r="7" fill="#c9ada7" opacity="0.82"/><circle cx="852" cy="348" r="7" fill="#c9ada7" opacity="0.82"/><circle cx="914" cy="348" r="7" fill="#c9ada7" opacity="0.82"/><circle cx="976" cy="348" r="7" fill="#c9ada7" opacity="0.82"/><circle cx="184" cy="390" r="7" fill="#c9ada7" opacity="0.82"/><circle cx="246" cy="390" r="7" fill="#c9ada7" opacity="0.82"/><circle cx="308" cy="390" r="7" fill="#c9ada7" opacity="0.82"/><circle cx="370" cy="390" r="7" fill="#c9ada7" opacity="0.82"/><circle cx="432" cy="390" r="7" fill="#c9ada7" opacity="0.82"/><circle cx="494" cy="390" r="7" fill="#c9ada7" opacity="0.82"/><circle cx="556" cy="390" r="7" fill="#c9ada7" opacity="0.82"/><circle cx="618" cy="390" r="7" fill="#c9ada7" opacity="0.82"/><circle cx="680" cy="390" r="7" fill="#c9ada7" opacity="0.82"/><circle cx="742" cy="390" r="7" fill="#c9ada7" opacity="0.82"/><circle cx="804" cy="390" r="7" fill="#c9ada7" opacity="0.82"/><circle cx="866" cy="390" r="7" fill="#c9ada7" opacity="0.82"/><circle cx="928" cy="390" r="7" fill="#c9ada7" opacity="0.82"/><circle cx="990" cy="390" r="7" fill="#c9ada7" opacity="0.82"/><circle cx="170" cy="432" r="7" fill="#c9ada7" opacity="0.82"/><circle cx="232" cy="432" r="7" fill="#c9ada7" opacity="0.82"/><circle cx="294" cy="432" r="7" fill="#c9ada7" opacity="0.82"/><circle cx="356" cy="432" r="7" fill="#c9ada7" opacity="0.82"/><circle cx="418" cy="432" r="7" fill="#c9ada7" opacity="0.82"/><circle cx="480" cy="432" r="7" fill="#c9ada7" opacity="0.82"/><circle cx="542" cy="432" r="7" fill="#c9ada7" opacity="0.82"/><circle cx="604" cy="432" r="7" fill="#c9ada7" opacity="0.82"/><circle cx="666" cy="432" r="7" fill="#c9ada7" opacity="0.82"/><circle cx="728" cy="432" r="7" fill="#c9ada7" opacity="0.82"/><circle cx="790" cy="432" r="7" fill="#c9ada7" opacity="0.82"/><circle cx="852" cy="432" r="7" fill="#c9ada7" opacity="0.82"/><circle cx="914" cy="432" r="7" fill="#c9ada7" opacity="0.82"/><circle cx="976" cy="432" r="7" fill="#c9ada7" opacity="0.82"/><circle cx="184" cy="474" r="7" fill="#c9ada7" opacity="0.82"/><circle cx="246" cy="474" r="7" fill="#c9ada7" opacity="0.82"/><circle cx="308" cy="474" r="7" fill="#c9ada7" opacity="0.82"/><circle cx="370" cy="474" r="7" fill="#c9ada7" opacity="0.82"/><circle cx="432" cy="474" r="7" fill="#c9ada7" opacity="0.82"/><circle cx="494" cy="474" r="7" fill="#c9ada7" opacity="0.82"/><circle cx="556" cy="474" r="7" fill="#c9ada7" opacity="0.82"/><circle cx="618" cy="474" r="7" fill="#c9ada7" opacity="0.82"/><circle cx="680" cy="474" r="7" fill="#c9ada7" opacity="0.82"/><circle cx="742" cy="474" r="7" fill="#c9ada7" opacity="0.82"/><circle cx="804" cy="474" r="7" fill="#c9ada7" opacity="0.82"/><circle cx="866" cy="474" r="7" fill="#c9ada7" opacity="0.82"/><circle cx="928" cy="474" r="7" fill="#c9ada7" opacity="0.82"/><circle cx="990" cy="474" r="7" fill="#c9ada7" opacity="0.82"/></g>
  <g><circle cx="870" cy="250" r="90" fill="#f2e9e4" opacity="0.12"/><circle cx="870" cy="250" r="48" fill="#f2e9e4" opacity="0.20"/></g>
  <text x="92" y="130" font-size="54" font-family="Segoe UI, Arial, sans-serif" font-weight="700" fill="#9a8c98">Point Cloud</text>
  <text x="94" y="176" font-size="22" font-family="Consolas, Menlo, monospace" fill="#ffffff" fill-opacity="0.72">forge3d gallery</text>
  <rect x="92" y="586" width="280" height="34" rx="17" fill="#000000" fill-opacity="0.22"/>
  <text x="232" y="609" font-size="18" text-anchor="middle" font-family="Consolas, Menlo, monospace" fill="#ffffff">viewer + ipc + datasets</text>
</svg>
